<?xml version="1.0" standalone="no"?>
<!DOCTYPE svg PUBLIC "-//W3C//DTD SVG 20010904//EN"
 "http://www.w3.org/TR/2001/REC-SVG-20010904/DTD/svg10.dtd">
<svg version="1.0" xmlns="http://www.w3.org/2000/svg"
 width="512.000000pt" height="512.000000pt" viewBox="0 0 512.000000 512.000000"
 preserveAspectRatio="xMidYMid meet">

<g transform="translate(0.000000,512.000000) scale(0.100000,-0.100000)"
fill="#000000" stroke="none">
<path d="M2265 4925 c-386 -55 -705 -172 -1010 -373 -156 -102 -245 -175 -383
-313 -193 -193 -325 -378 -447 -624 -172 -347 -245 -656 -245 -1033 0 -298 32
-509 119 -770 146 -441 407 -818 766 -1107 349 -280 741 -447 1200 -511 191
-26 281 -12 360 57 76 67 75 52 75 615 l0 501 67 7 c221 23 412 155 513 357
60 117 63 141 67 547 l5 372 -812 0 -812 0 4 -372 c5 -368 6 -374 31 -453 88
-270 336 -455 609 -455 l49 0 -3 -421 -3 -421 -28 -24 c-38 -32 -81 -31 -264
7 -405 84 -780 291 -1068 590 -352 365 -548 807 -587 1322 -37 494 109 985
415 1396 279 373 693 651 1142 767 204 52 334 68 540 68 566 -2 1078 -214
1475 -613 521 -523 733 -1280 555 -1984 -174 -686 -655 -1221 -1320 -1467 -77
-29 -148 -59 -159 -69 -33 -29 -49 -72 -43 -118 6 -58 30 -91 84 -115 45 -20
48 -20 107 -4 175 48 424 166 606 286 591 391 983 1033 1059 1732 14 124 14
381 1 506 -41 373 -178 757 -381 1061 -373 559 -927 923 -1589 1043 -151 27
-543 34 -695 13z"/>
<path d="M2031 3744 l-31 -26 0 -389 0 -389 90 0 91 0 -3 391 -3 391 -28 24
c-37 31 -78 31 -116 -2z"/>
<path d="M2929 3741 l-29 -29 0 -386 0 -386 90 0 90 0 0 386 0 386 -29 29
c-20 20 -39 29 -61 29 -22 0 -41 -9 -61 -29z"/>
<path d="M1589 2871 c-24 -24 -29 -38 -29 -76 0 -38 5 -52 29 -76 l29 -29 920
0 920 0 31 26 c27 22 31 32 31 76 0 41 -5 54 -29 79 l-29 29 -922 0 -922 0
-29 -29z"/>
</g>
</svg>
